<svg width="37" height="27" fill="none" xmlns="http://www.w3.org/2000/svg"><path fill-rule="evenodd" clip-rule="evenodd" d="M5.433 23.452c4.658 0 5.536-4.125 5.536-7.427h6.92c10.847 0 10.85-15.455.345-15.455-2.857 0-4.697 1.744-5.19 2.352-5.86 0-6.573 3.084-6.573 9.072v5.489c0 1.408-.562 2.321-2.076 2.321-1.293 0-1.906-1.153-2.422-2.77-.27.145-2.16 1.174-2.422 1.343.572 1.616 1.185 5.075 5.882 5.075zm6.585-13.81c1.775 0 1.926 2.687-.125 2.687-1.729 0-1.684-2.688.125-2.688zm6.217 8.054c-1.5 0-5.882-.327-5.882-.327v8.287l4.152.06 1.038-5.995 13.147-.249.346 6.572 4.844.06s.691-12.872.691-15.455c0-4.79-2.128-7.5-6.92-7.727-1.2-.057-2.77-.283-3.805-.336 4.51 5.525.921 15.11-7.611 15.11zm8.303 3.36l.346 4.87 2.768.06-.346-4.93h-2.768zm-8.65 4.72l2.768.06.692-4.78h-2.422l-1.038 4.72z" fill="#FF862F"/></svg>